PathFileType	4	(X/Y/Z)	Patient4_TMGait_0pt4_01_right_17.trc.trc
DataRate	CameraRate	NumFrames	NumMarkers	Units	OrigDataRate	OrigDataStartFrame	OrigNumFrames
74.074074074074	74.074074074074	4	33	mm	74.074074074074	89	       141
Frame#	Time	Sacral			L.Shoulder			Chest			R.Shoulder			Neck			R.ASIS			L.ASIS			R.Thigh.Superior			R.Thigh.Lateral			R.Thigh.Inferior			R.Patella			L.Thigh.Superior			L.Thigh.Lateral			L.Thigh.Inferior			L.Patella			L.Shank.Superior			L.Shank.Lateral			L.Shank.Inferior			R.Shank.Superior			R.Shank.Lateral			R.Shank.Inferior			R.Heel			R.Midfoot.Superior			R.Midfoot.Lateral			R.Toe			L.Heel			L.Midfoot.Lateral			L.Midfoot.Superior			L.Toe			L.Elbow			L.Wrist			R.Elbow			R.Wrist			
		X1	Y1	Z1	X2	Y2	Z2	X3	Y3	Z3	X4	Y4	Z4	X5	Y5	Z5	X6	Y6	Z6	X7	Y7	Z7	X8	Y8	Z8	X9	Y9	Z9	X10	Y10	Z10	X11	Y11	Z11	X12	Y12	Z12	X13	Y13	Z13	X14	Y14	Z14	X15	Y15	Z15	X16	Y16	Z16	X17	Y17	Z17	X18	Y18	Z18	X19	Y19	Z19	X20	Y20	Z20	X21	Y21	Z21	X22	Y22	Z22	X23	Y23	Z23	X24	Y24	Z24	X25	Y25	Z25	X26	Y26	Z26	X27	Y27	Z27	X28	Y28	Z28	X29	Y29	Z29	X30	Y30	Z30	X31	Y31	Z31	X32	Y32	Z32	X33	Y33	Z33	

89	23.138000000000	600.668840804772	1007.208252550897	398.614800771538	759.701553183108	1442.337673594983	217.580891573178	881.159977039580	1370.554523925320	363.146255554908	817.047197285410	1437.859388165740	548.210964522941	760.395830161298	1496.370243625596	382.866388335662	839.410535100890	940.228310373242	490.786107340315	798.975726674717	968.675313683254	220.533359925596	849.418576693501	729.146061898085	463.660746258759	756.001001212336	628.060112247774	529.504347403225	822.959885570777	564.885532415522	450.506866246576	809.080167254955	467.366145367491	464.319267478313	860.227763105952	761.322812170272	238.812459600651	777.293469354529	638.198669787264	183.835760909852	876.066845925918	567.099491410679	233.687555358427	883.026357104452	496.689694276690	239.487774765746	856.660975419897	423.249002794329	234.363912424555	764.770889298237	306.646787024803	193.321936657708	829.231214044192	195.632059476268	253.387513206616	750.362295876227	391.958144391833	470.016739273502	647.551700566831	316.801964663976	530.128676480763	662.371564482531	211.365250346259	471.087673992709	488.736554240245	76.143864618749	439.274778581303	666.912673598185	99.994239030678	476.933233964331	569.515743226214	50.253812972925	511.630515940169	774.829139087663	35.548910557914	500.819595399535	713.251124374814	38.230188344237	308.891055865926	775.873273410806	34.994478790049	219.138783540074	862.022266896089	96.746426580361	234.291559316868	985.597446223616	44.431578326477	189.358362411799	687.979738019464	1150.696022282683	17.279925973742	825.604881101654	963.762557519101	-112.812904861144	781.948625432220	1099.262598532529	681.616194877510	883.055149255329	858.746679460382	690.029419063890	
90	23.151500000000	600.308371263752	1007.513911038851	395.274592988296	760.052147538446	1442.831288525494	214.757076089622	880.781710374713	1371.208649671836	360.987740644545	815.596836120024	1438.489386616165	545.669303496567	760.038345226918	1496.921985852940	380.048347050370	838.803453462806	940.843117200892	488.389825931742	799.510906625343	969.260194717822	218.086970048996	851.679659547756	730.079710963328	461.428739978399	760.132663891823	628.002940486796	527.773424008054	828.453285716661	565.255457140205	449.055359256228	815.637250488187	466.258212994970	464.313180624546	859.401615371517	760.682243203929	235.965495954154	774.574940627202	638.120255242472	182.159425803532	872.610949584450	566.263280982183	231.983087405559	878.952516138074	496.166510770439	238.486856707766	852.597346373225	422.828448217987	233.443825562838	760.580436157902	306.393167872979	192.539305504456	824.395604631297	195.406251971346	253.181197206040	754.680758461929	391.838737997797	469.844171853797	649.714801892565	319.529870094379	529.636513601084	662.385071485449	213.364602258542	471.500147930694	485.499718606822	82.507543163183	439.798556839173	664.257438938569	100.897850968665	477.688065369281	565.426853325573	53.602304643908	511.911890637419	769.715149655786	35.318657974875	500.791864772325	707.828807810094	38.203456459677	308.844950499468	770.435283689036	34.933096049734	219.064144413705	856.624868236498	96.657465529376	234.267858516825	980.215857223353	44.237597867624	189.293033405895	690.918733509814	1151.751090452406	13.032848781063	831.855563045116	966.552433376627	-116.085118106967	775.068377524915	1100.557455572930	678.588855654256	865.717552606199	855.865589456878	691.650497092819	
91	23.165000000000	599.827476192874	1007.694946025350	391.965997556134	760.577670730121	1443.163403737977	211.923454064120	880.429881998085	1371.663962434185	358.913050139465	814.067093329374	1438.959635072632	543.150859703930	759.726953325086	1497.323169861104	377.229007654770	837.993647009461	941.315170468179	486.099405757297	799.985758437525	969.692011114577	215.742050673794	854.336145783082	731.093905052842	459.305348352322	764.923551903435	627.897195465333	526.149630575528	834.761278252925	565.707716211821	447.737631084343	823.052721813953	465.270099804409	464.350560438365	858.401371047071	759.880045260680	233.497682669424	772.002550879703	638.005252981294	180.500253697539	869.168071128030	565.422717399990	230.579382474491	874.860467857093	495.581853111924	237.640407142791	848.503026416560	422.350144775148	232.601590094718	756.381172966173	306.077531212252	191.785538044160	819.525883862082	195.126940846675	253.025783765156	759.911007245562	391.774845893203	469.724229778851	652.802581417832	322.500547235634	529.213030230369	663.114211890619	215.671351701371	471.960172704459	482.862469558895	89.859785933508	440.394988661614	662.035286299032	102.028524423450	478.510390181625	561.677465012867	57.678353429219	512.234575024077	764.609843214966	35.008083511916	500.773315063185	702.369420529711	38.151228548993	308.822002609132	764.972814238858	34.852756773542	219.019758210113	851.212847719246	96.524333174947	234.300859578678	974.818400042576	43.986425163679	189.288681155487	693.844232700386	1152.833454126043	8.677412526480	838.297885972067	969.626751758374	-119.444722586669	768.108475017045	1101.886564368040	675.715980181556	848.734904279019	853.769661253202	693.059777741860	
92	23.178500000000	599.217667360960	1007.748070191435	388.724099388654	761.301273672055	1443.306465597893	209.096021900121	880.131163828902	1371.876732839163	356.927740272424	812.518477153209	1439.264068750131	540.659799024615	759.491680122385	1497.556162617029	374.413047902729	836.955305482186	941.616921459465	483.939854337885	800.362389054985	969.946064754209	213.505913663463	857.335650566602	732.224546867107	457.325625570352	770.335231999882	627.781479360205	524.660270359515	841.837981126200	566.303515022818	446.580776764086	831.290954228516	464.479323191705	464.423196591828	857.253525887667	758.986911095602	231.444393328619	769.667029932246	637.873742948751	178.839636111376	865.830399363011	564.604721736074	229.441509816480	870.848085213251	494.951660842632	236.914977051654	844.461504733053	421.820720691833	231.817643915683	752.241519030841	305.721286665360	191.025269552689	814.661050450656	194.802362230123	252.893559947209	766.046395377630	391.820698060276	469.640012406758	656.832615256437	325.744857424840	528.847732855812	664.592336394854	218.341120404330	472.441483814051	480.942178977109	98.306355175518	441.027651722929	660.283134279673	103.479180165276	479.375900968540	558.339075279601	62.609234868824	512.575679544918	759.520614839498	34.566599974863	500.771866219449	696.892017209096	38.084645915710	308.802497224341	759.502230124368	34.764982407970	218.983625096753	845.799080787589	96.365137684120	234.363800129896	969.418586506263	43.699670189582	189.317531101426	696.771148112526	1153.920697070945	4.224077865586	844.896306647358	972.945226644625	-122.880482500904	761.013472856818	1103.247862535094	673.017251166134	832.227251390355	852.420231802392	694.246181896222	
